{
  "accessors": [
    {
      "bufferView": 2,
      "componentType": 5126,
      "count": 352,
      "max": [
        1.2384765148162842,
        1.2384765148162842,
        3.107527017593384
      ],
      "min": [
        -1.2384765148162842,
        -1.2384765148162842,
        -0.6410613059997559
      ],
      "type": "VEC3"
    },
    {
      "bufferView": 2,
      "byteOffset": 4224,
      "componentType": 5126,
      "count": 352,
      "max": [
        1.0,
        1.0,
        1.0
      ],
      "min": [
        -1.0,
        -1.0,
        -1.0
      ],
      "type": "VEC3"
    },
    {
      "bufferView": 3,
      "componentType": 5126,
      "count": 352,
      "max": [
        0.9999999403953552,
        0.9999999403953552,
        0.9999726414680481,
        1.0
      ],
      "min": [
        -0.9999998807907104,
        -0.9999998807907104,
        -0.9874285459518433,
        1.0
      ],
      "type": "VEC4"
    },
    {
      "bufferView": 1,
      "componentType": 5126,
      "count": 352,
      "max": [
        1.0,
        0.9779735803604126
      ],
      "min": [
        0.0,
        0.0
      ],
      "type": "VEC2"
    },
    {
      "bufferView": 1,
      "byteOffset": 2816,
      "componentType": 5126,
      "count": 352,
      "max": [
        1.0,
        0.9779735803604126
      ],
      "min": [
        0.0,
        0.0
      ],
      "type": "VEC2"
    },
    {
      "bufferView": 1,
      "byteOffset": 5632,
      "componentType": 5126,
      "count": 352,
      "max": [
        1.0,
        0.9779735803604126
      ],
      "min": [
        0.0,
        0.0
      ],
      "type": "VEC2"
    },
    {
      "bufferView": 0,
      "componentType": 5125,
      "count": 840,
      "type": "SCALAR"
    },
    {
      "bufferView": 2,
      "byteOffset": 8448,
      "componentType": 5126,
      "count": 1004,
      "max": [
        0.9873324632644653,
        0.2114473134279251,
        0.25740206241607666
      ],
      "min": [
        0.05434846878051758,
        -0.21144722402095795,
        -1.7589296102523804
      ],
      "type": "VEC3"
    },
    {
      "bufferView": 2,
      "byteOffset": 20496,
      "componentType": 5126,
      "count": 1004,
      "max": [
        0.9936075806617737,
        1.0,
        0.9996066093444824
      ],
      "min": [
        -0.9999352693557739,
        -1.0,
        -0.9999982118606567
      ],
      "type": "VEC3"
    },
    {
      "bufferView": 3,
      "byteOffset": 5632,
      "componentType": 5126,
      "count": 1004,
      "max": [
        0.9999577403068542,
        1.0,
        0.996421754360199,
        1.0
      ],
      "min": [
        -0.999997079372406,
        -1.0,
        -0.9799734950065613,
        1.0
      ],
      "type": "VEC4"
    },
    {
      "bufferView": 1,
      "byteOffset": 8448,
      "componentType": 5126,
      "count": 1004,
      "max": [
        0.9268722534179688,
        0.8297682404518127
      ],
      "min": [
        0.183083638548851,
        0.0
      ],
      "type": "VEC2"
    },
    {
      "bufferView": 1,
      "byteOffset": 16480,
      "componentType": 5126,
      "count": 1004,
      "max": [
        0.9268722534179688,
        0.8297682404518127
      ],
      "min": [
        0.183083638548851,
        0.0
      ],
      "type": "VEC2"
    },
    {
      "bufferView": 1,
      "byteOffset": 24512,
      "componentType": 5126,
      "count": 1004,
      "max": [
        0.9268722534179688,
        0.8297682404518127
      ],
      "min": [
        0.183083638548851,
        0.0
      ],
      "type": "VEC2"
    },
    {
      "bufferView": 0,
      "byteOffset": 3360,
      "componentType": 5125,
      "count": 4344,
      "type": "SCALAR"
    },
    {
      "bufferView": 2,
      "byteOffset": 32544,
      "componentType": 5126,
      "count": 404,
      "max": [
        0.9378728270530701,
        0.9360222220420837,
        1.2352728843688965
      ],
      "min": [
        -0.9304775595664978,
        -0.936022162437439,
        1.0101591348648071
      ],
      "type": "VEC3"
    },
    {
      "bufferView": 2,
      "byteOffset": 37392,
      "componentType": 5126,
      "count": 404,
      "max": [
        0.561053991317749,
        0.5603537559509277,
        0.8277771472930908
      ],
      "min": [
        -0.5574532747268677,
        -0.5603537559509277,
        -0.8277743458747864
      ],
      "type": "VEC3"
    },
    {
      "bufferView": 3,
      "byteOffset": 21696,
      "componentType": 5126,
      "count": 404,
      "max": [
        0.9993396401405334,
        0.9995394349098206,
        0.02766193076968193,
        1.0
      ],
      "min": [
        -0.9993396401405334,
        -0.9951962232589722,
        -0.01117370929569006,
        1.0
      ],
      "type": "VEC4"
    },
    {
      "bufferView": 1,
      "byteOffset": 32544,
      "componentType": 5126,
      "count": 404,
      "max": [
        0.9724593758583069,
        0.9430691599845886
      ],
      "min": [
        0.024935662746429443,
        0.9323826432228088
      ],
      "type": "VEC2"
    },
    {
      "bufferView": 1,
      "byteOffset": 35776,
      "componentType": 5126,
      "count": 404,
      "max": [
        0.9724593758583069,
        0.9430691599845886
      ],
      "min": [
        0.024935662746429443,
        0.9323826432228088
      ],
      "type": "VEC2"
    },
    {
      "bufferView": 1,
      "byteOffset": 39008,
      "componentType": 5126,
      "count": 404,
      "max": [
        0.9724593758583069,
        0.9430691599845886
      ],
      "min": [
        0.024935662746429443,
        0.9323826432228088
      ],
      "type": "VEC2"
    },
    {
      "bufferView": 0,
      "byteOffset": 20736,
      "componentType": 5125,
      "count": 1200,
      "type": "SCALAR"
    },
    {
      "bufferView": 2,
      "byteOffset": 42240,
      "componentType": 5126,
      "count": 144,
      "max": [
        0.1571766883134842,
        0.2610689401626587,
        0.17576050758361816
      ],
      "min": [
        -0.39363712072372437,
        -0.2610689401626587,
        -0.7034614086151123
      ],
      "type": "VEC3"
    },
    {
      "bufferView": 2,
      "byteOffset": 43968,
      "componentType": 5126,
      "count": 144,
      "max": [
        0.8436411619186401,
        0.9465001821517944,
        0.9998335242271423
      ],
      "min": [
        -0.9963442087173462,
        -0.9465001821517944,
        -0.9477434754371643
      ],
      "type": "VEC3"
    },
    {
      "bufferView": 3,
      "byteOffset": 28160,
      "componentType": 5126,
      "count": 144,
      "max": [
        0.9793796539306641,
        0.9992986917495728,
        0.19049912691116333,
        1.0
      ],
      "min": [
        -0.42286527156829834,
        -0.9992986917495728,
        -0.4186381995677948,
        -1.0
      ],
      "type": "VEC4"
    },
    {
      "bufferView": 1,
      "byteOffset": 42240,
      "componentType": 5126,
      "count": 144,
      "max": [
        0.7167223691940308,
        0.7478744983673096
      ],
      "min": [
        0.18308359384536743,
        0.18026459217071533
      ],
      "type": "VEC2"
    },
    {
      "bufferView": 1,
      "byteOffset": 43392,
      "componentType": 5126,
      "count": 144,
      "max": [
        0.7167223691940308,
        0.7478744983673096
      ],
      "min": [
        0.18308359384536743,
        0.18026459217071533
      ],
      "type": "VEC2"
    },
    {
      "bufferView": 1,
      "byteOffset": 44544,
      "componentType": 5126,
      "count": 144,
      "max": [
        0.7167223691940308,
        0.7478744983673096
      ],
      "min": [
        0.18308359384536743,
        0.18026459217071533
      ],
      "type": "VEC2"
    },
    {
      "bufferView": 0,
      "byteOffset": 25536,
      "componentType": 5125,
      "count": 216,
      "type": "SCALAR"
    },
    {
      "bufferView": 2,
      "byteOffset": 45696,
      "componentType": 5126,
      "count": 1202,
      "max": [
        0.12168656289577484,
        0.20114384591579437,
        0.12168657034635544
      ],
      "min": [
        -0.5888282060623169,
        -0.20114384591579437,
        -0.12168656289577484
      ],
      "type": "VEC3"
    },
    {
      "bufferView": 2,
      "byteOffset": 60120,
      "componentType": 5126,
      "count": 1202,
      "max": [
        1.0,
        1.0,
        1.0
      ],
      "min": [
        -1.0,
        -1.0,
        -1.0
      ],
      "type": "VEC3"
    },
    {
      "bufferView": 3,
      "byteOffset": 30464,
      "componentType": 5126,
      "count": 1202,
      "max": [
        1.0,
        1.0,
        1.0,
        1.0
      ],
      "min": [
        -1.0,
        -1.0,
        -1.0,
        -1.0
      ],
      "type": "VEC4"
    },
    {
      "bufferView": 1,
      "byteOffset": 45696,
      "componentType": 5126,
      "count": 1202,
      "max": [
        0.7863263487815857,
        0.8569777607917786
      ],
      "min": [
        0.18124443292617798,
        0.18026459217071533
      ],
      "type": "VEC2"
    },
    {
      "bufferView": 1,
      "byteOffset": 55312,
      "componentType": 5126,
      "count": 1202,
      "max": [
        0.7863263487815857,
        0.8569777607917786
      ],
      "min": [
        0.18124443292617798,
        0.18026459217071533
      ],
      "type": "VEC2"
    },
    {
      "bufferView": 1,
      "byteOffset": 64928,
      "componentType": 5126,
      "count": 1202,
      "max": [
        0.7863263487815857,
        0.8569777607917786
      ],
      "min": [
        0.18124443292617798,
        0.18026459217071533
      ],
      "type": "VEC2"
    },
    {
      "bufferView": 0,
      "byteOffset": 26400,
      "componentType": 5125,
      "count": 4914,
      "type": "SCALAR"
    },
    {
      "bufferView": 2,
      "byteOffset": 74544,
      "componentType": 5126,
      "count": 174,
      "max": [
        0.28261756896972656,
        0.10436076670885086,
        0.3077475428581238
      ],
      "min": [
        -0.28261756896972656,
        -0.10436076670885086,
        -0.13598084449768066
      ],
      "type": "VEC3"
    },
    {
      "bufferView": 2,
      "byteOffset": 76632,
      "componentType": 5126,
      "count": 174,
      "max": [
        1.0,
        1.0,
        1.0
      ],
      "min": [
        -1.0,
        -1.0,
        -0.9951868653297424
      ],
      "type": "VEC3"
    },
    {
      "bufferView": 3,
      "byteOffset": 49696,
      "componentType": 5126,
      "count": 174,
      "max": [
        0.7059294581413269,
        1.0,
        1.0,
        1.0
      ],
      "min": [
        -0.14474402368068695,
        -1.0,
        -0.7567276358604431,
        1.0
      ],
      "type": "VEC4"
    },
    {
      "bufferView": 1,
      "byteOffset": 74544,
      "componentType": 5126,
      "count": 174,
      "max": [
        0.8368639349937439,
        0.8598924279212952
      ],
      "min": [
        0.20616842806339264,
        0.18026459217071533
      ],
      "type": "VEC2"
    },
    {
      "bufferView": 1,
      "byteOffset": 75936,
      "componentType": 5126,
      "count": 174,
      "max": [
        0.8368639349937439,
        0.8598924279212952
      ],
      "min": [
        0.20616842806339264,
        0.18026459217071533
      ],
      "type": "VEC2"
    },
    {
      "bufferView": 1,
      "byteOffset": 77328,
      "componentType": 5126,
      "count": 174,
      "max": [
        0.8368639349937439,
        0.8598924279212952
      ],
      "min": [
        0.20616842806339264,
        0.18026459217071533
      ],
      "type": "VEC2"
    },
    {
      "bufferView": 0,
      "byteOffset": 46056,
      "componentType": 5125,
      "count": 564,
      "type": "SCALAR"
    },
    {
      "bufferView": 2,
      "byteOffset": 78720,
      "componentType": 5126,
      "count": 153,
      "max": [
        1.2384765148162842,
        1.2384765148162842,
        3.966184377670288
      ],
      "min": [
        -1.5993497371673584,
        -1.2384765148162842,
        3.103466272354126
      ],
      "type": "VEC3"
    },
    {
      "bufferView": 2,
      "byteOffset": 80556,
      "componentType": 5126,
      "count": 153,
      "max": [
        0.9238803386688232,
        0.9482520818710327,
        0.9982076287269592
      ],
      "min": [
        -0.9238803386688232,
        -0.9482520818710327,
        -1.0
      ],
      "type": "VEC3"
    },
    {
      "bufferView": 3,
      "byteOffset": 52480,
      "componentType": 5126,
      "count": 153,
      "max": [
        0.9209970831871033,
        0.9243172407150269,
        0.974377453327179,
        1.0
      ],
      "min": [
        -0.3845471441745758,
        -0.9269101023674011,
        -0.9999962449073792,
        1.0
      ],
      "type": "VEC4"
    },
    {
      "bufferView": 1,
      "byteOffset": 78720,
      "componentType": 5126,
      "count": 153,
      "max": [
        0.7609119415283203,
        0.9197304248809814
      ],
      "min": [
        0.0,
        0.0
      ],
      "type": "VEC2"
    },
    {
      "bufferView": 1,
      "byteOffset": 79944,
      "componentType": 5126,
      "count": 153,
      "max": [
        0.7609119415283203,
        0.9197304248809814
      ],
      "min": [
        0.0,
        0.0
      ],
      "type": "VEC2"
    },
    {
      "bufferView": 1,
      "byteOffset": 81168,
      "componentType": 5126,
      "count": 153,
      "max": [
        0.7609119415283203,
        0.9197304248809814
      ],
      "min": [
        0.0,
        0.0
      ],
      "type": "VEC2"
    },
    {
      "bufferView": 0,
      "byteOffset": 48312,
      "componentType": 5125,
      "count": 288,
      "type": "SCALAR"
    }
  ],
  "asset": {
    "extras": {
      "author": "assetfactory (https://sketchfab.com/assetfactory)",
      "license": "SKETCHFAB Standard (https://sketchfab.com/licenses)",
      "source": "https://sketchfab.com/3d-models/moka-pot-coffee-maker-d43f3016640149908beafe877e3202a3",
      "title": "Moka Pot Coffee maker"
    },
    "generator": "Sketchfab-16.33.0",
    "version": "2.0"
  },
  "bufferViews": [
    {
      "buffer": 0,
      "byteLength": 49464,
      "name": "floatBufferViews",
      "target": 34963
    },
    {
      "buffer": 0,
      "byteLength": 82392,
      "byteOffset": 49464,
      "byteStride": 8,
      "name": "floatBufferViews",
      "target": 34962
    },
    {
      "buffer": 0,
      "byteLength": 82392,
      "byteOffset": 131856,
      "byteStride": 12,
      "name": "floatBufferViews",
      "target": 34962
    },
    {
      "buffer": 0,
      "byteLength": 54928,
      "byteOffset": 214248,
      "byteStride": 16,
      "name": "floatBufferViews",
      "target": 34962
    }
  ],
  "buffers": [
    {
      "byteLength": 269176,
      "uri": "scene.bin"
    }
  ],
  "images": [
    {
      "uri": "textures/Metal_baseColor.jpeg"
    },
    {
      "uri": "textures/Metal_metallicRoughness.png"
    },
    {
      "uri": "textures/Metal_normal.png"
    }
  ],
  "materials": [
    {
      "doubleSided": true,
      "name": "Metal",
      "normalTexture": {
        "index": 2
      },
      "occlusionTexture": {
        "index": 1
      },
      "pbrMetallicRoughness": {
        "baseColorTexture": {
          "index": 0
        },
        "metallicRoughnessTexture": {
          "index": 1
        }
      }
    }
  ],
  "meshes": [
    {
      "name": "Cylinder_Metal_0",
      "primitives": [
        {
          "attributes": {
            "NORMAL": 1,
            "POSITION": 0,
            "TANGENT": 2,
            "TEXCOORD_0": 3,
            "TEXCOORD_1": 4,
            "TEXCOORD_2": 5
          },
          "indices": 6,
          "material": 0,
          "mode": 4
        }
      ]
    },
    {
      "name": "Cube_Metal_0",
      "primitives": [
        {
          "attributes": {
            "NORMAL": 8,
            "POSITION": 7,
            "TANGENT": 9,
            "TEXCOORD_0": 10,
            "TEXCOORD_1": 11,
            "TEXCOORD_2": 12
          },
          "indices": 13,
          "material": 0,
          "mode": 4
        }
      ]
    },
    {
      "name": "Cylinder.001_Metal_0",
      "primitives": [
        {
          "attributes": {
            "NORMAL": 15,
            "POSITION": 14,
            "TANGENT": 16,
            "TEXCOORD_0": 17,
            "TEXCOORD_1": 18,
            "TEXCOORD_2": 19
          },
          "indices": 20,
          "material": 0,
          "mode": 4
        }
      ]
    },
    {
      "name": "Cube.001_Metal_0",
      "primitives": [
        {
          "attributes": {
            "NORMAL": 22,
            "POSITION": 21,
            "TANGENT": 23,
            "TEXCOORD_0": 24,
            "TEXCOORD_1": 25,
            "TEXCOORD_2": 26
          },
          "indices": 27,
          "material": 0,
          "mode": 4
        }
      ]
    },
    {
      "name": "Cube.002_Metal_0",
      "primitives": [
        {
          "attributes": {
            "NORMAL": 29,
            "POSITION": 28,
            "TANGENT": 30,
            "TEXCOORD_0": 31,
            "TEXCOORD_1": 32,
            "TEXCOORD_2": 33
          },
          "indices": 34,
          "material": 0,
          "mode": 4
        }
      ]
    },
    {
      "name": "Cube.003_Metal_0",
      "primitives": [
        {
          "attributes": {
            "NORMAL": 36,
            "POSITION": 35,
            "TANGENT": 37,
            "TEXCOORD_0": 38,
            "TEXCOORD_1": 39,
            "TEXCOORD_2": 40
          },
          "indices": 41,
          "material": 0,
          "mode": 4
        }
      ]
    },
    {
      "name": "Cylinder.002_Metal_0",
      "primitives": [
        {
          "attributes": {
            "NORMAL": 43,
            "POSITION": 42,
            "TANGENT": 44,
            "TEXCOORD_0": 45,
            "TEXCOORD_1": 46,
            "TEXCOORD_2": 47
          },
          "indices": 48,
          "material": 0,
          "mode": 4
        }
      ]
    }
  ],
  "nodes": [
    {
      "children": [
        1
      ],
      "matrix": [
        1.0,
        0.0,
        0.0,
        0.0,
        0.0,
        2.220446049250313e-16,
        -1.0,
        0.0,
        0.0,
        1.0,
        2.220446049250313e-16,
        0.0,
        0.0,
        0.0,
        0.0,
        1.0
      ],
      "name": "Sketchfab_model"
    },
    {
      "children": [
        2
      ],
      "matrix": [
        1.0,
        0.0,
        0.0,
        0.0,
        0.0,
        0.0,
        1.0,
        0.0,
        0.0,
        -1.0,
        0.0,
        0.0,
        0.0,
        0.0,
        0.0,
        1.0
      ],
      "name": "Coffeepot.fbx"
    },
    {
      "children": [
        3,
        5,
        7,
        9,
        11,
        13,
        15
      ],
      "name": "RootNode"
    },
    {
      "children": [
        4
      ],
      "matrix": [
        100.0,
        0.0,
        0.0,
        0.0,
        0.0,
        -1.629206793918314e-05,
        -99.99999999999868,
        0.0,
        0.0,
        99.99999999999868,
        -1.629206793918314e-05,
        0.0,
        0.0,
        73.59916687011719,
        0.0,
        1.0
      ],
      "name": "Cylinder"
    },
    {
      "mesh": 0,
      "name": "Cylinder_Metal_0"
    },
    {
      "children": [
        6
      ],
      "matrix": [
        100.0,
        0.0,
        0.0,
        0.0,
        0.0,
        -1.629206793918314e-05,
        -99.99999999999868,
        0.0,
        0.0,
        99.99999999999868,
        -1.629206793918314e-05,
        0.0,
        134.0856170654297,
        377.8810729980469,
        5.077960668131709e-05,
        1.0
      ],
      "name": "Cube"
    },
    {
      "mesh": 1,
      "name": "Cube_Metal_0"
    },
    {
      "children": [
        8
      ],
      "matrix": [
        92.13552856445313,
        0.0,
        0.0,
        0.0,
        0.0,
        -1.5010782909846193e-05,
        -92.1355285644519,
        0.0,
        0.0,
        92.1355285644519,
        -1.5010782909846193e-05,
        0.0,
        0.0,
        67.08303833007813,
        0.0,
        1.0
      ],
      "name": "Cylinder.001"
    },
    {
      "mesh": 2,
      "name": "Cylinder.001_Metal_0"
    },
    {
      "children": [
        10
      ],
      "matrix": [
        100.0,
        0.0,
        0.0,
        0.0,
        -0.0,
        -1.629206793918314e-05,
        -99.99999999999868,
        0.0,
        0.0,
        99.99999999999868,
        -1.629206793918314e-05,
        0.0,
        -122.85417175292969,
        366.88751220703125,
        -3.033819666597992e-06,
        1.0
      ],
      "name": "Cube.001"
    },
    {
      "mesh": 3,
      "name": "Cube.001_Metal_0"
    },
    {
      "children": [
        12
      ],
      "matrix": [
        100.0,
        0.0,
        0.0,
        0.0,
        0.0,
        -1.629206793918314e-05,
        -99.99999999999868,
        0.0,
        0.0,
        99.99999999999868,
        -1.629206793918314e-05,
        0.0,
        144.48239135742188,
        388.35400390625,
        5.579298158409074e-05,
        1.0
      ],
      "name": "Cube.002"
    },
    {
      "mesh": 4,
      "name": "Cube.002_Metal_0"
    },
    {
      "children": [
        14
      ],
      "matrix": [
        100.0,
        0.0,
        0.0,
        0.0,
        0.0,
        -1.629206793918314e-05,
        -99.99999999999868,
        0.0,
        0.0,
        99.99999999999868,
        -1.629206793918314e-05,
        0.0,
        128.9014129638672,
        369.58837890625,
        5.327165126800537e-05,
        1.0
      ],
      "name": "Cube.003"
    },
    {
      "mesh": 5,
      "name": "Cube.003_Metal_0"
    },
    {
      "children": [
        16
      ],
      "matrix": [
        100.0,
        0.0,
        0.0,
        0.0,
        0.0,
        -1.629206793918314e-05,
        -99.99999999999868,
        0.0,
        0.0,
        99.99999999999868,
        -1.629206793918314e-05,
        0.0,
        0.0,
        73.59916687011719,
        0.0,
        1.0
      ],
      "name": "Cylinder.002"
    },
    {
      "mesh": 6,
      "name": "Cylinder.002_Metal_0"
    }
  ],
  "samplers": [
    {
      "magFilter": 9729,
      "minFilter": 9987,
      "wrapS": 10497,
      "wrapT": 10497
    }
  ],
  "scene": 0,
  "scenes": [
    {
      "name": "Sketchfab_Scene",
      "nodes": [
        0
      ]
    }
  ],
  "textures": [
    {
      "sampler": 0,
      "source": 0
    },
    {
      "sampler": 0,
      "source": 1
    },
    {
      "sampler": 0,
      "source": 2
    }
  ]
}
